<?xml version="1.0" encoding="UTF-8" standalone="no"?>
<svg
   xmlns:dc="http://purl.org/dc/elements/1.1/"
   xmlns:cc="http://creativecommons.org/ns#"
   xmlns:rdf="http://www.w3.org/1999/02/22-rdf-syntax-ns#"
   xmlns:svg="http://www.w3.org/2000/svg"
   xmlns="http://www.w3.org/2000/svg"
   xmlns:sodipodi="http://sodipodi.sourceforge.net/DTD/sodipodi-0.dtd"
   xmlns:inkscape="http://www.inkscape.org/namespaces/inkscape"
   height="511pt"
   viewBox="-58 0 511 511.99635"
   width="511pt"
   version="1.1"
   id="svg24"
   sodipodi:docname="menu.svg"
   inkscape:version="0.92.2 2405546, 2018-03-11">
  <metadata
     id="metadata30">
    <rdf:RDF>
      <cc:Work
         rdf:about="">
        <dc:format>image/svg+xml</dc:format>
        <dc:type
           rdf:resource="http://purl.org/dc/dcmitype/StillImage" />
      </cc:Work>
    </rdf:RDF>
  </metadata>
  <defs
     id="defs28" />
  <sodipodi:namedview
     pagecolor="#ffffff"
     bordercolor="#666666"
     borderopacity="1"
     objecttolerance="10"
     gridtolerance="10"
     guidetolerance="10"
     inkscape:pageopacity="0"
     inkscape:pageshadow="2"
     inkscape:window-width="1920"
     inkscape:window-height="1020"
     id="namedview26"
     showgrid="false"
     inkscape:zoom="0.6927593"
     inkscape:cx="107.56532"
     inkscape:cy="361.83804"
     inkscape:window-x="0"
     inkscape:window-y="28"
     inkscape:window-maximized="1"
     inkscape:current-layer="g96" />
  <path
     d="m 383.87821,145.78283 v 225.36233 c 0,0 0,50.61376 -32.01951,79.91165 -3.62743,3.4737 -5.63437,8.31028 -5.5388,13.33385 v 28.8242 c -0.0332,10.35877 -8.42247,18.75215 -18.78123,18.78123 H 177.29712 c -10.35877,-0.0291 -18.74799,-8.42246 -18.78123,-18.78123 v -3.4737 c 0.0208,-15.05407 -6.03742,-29.48071 -16.80755,-40.00153 C 123.58778,432.0886 95.602911,401.56909 83.399265,371.14516 64.618033,324.19623 27.055567,258.46607 8.2784893,239.68484 c -18.7812323,-18.78123 0,-37.55831 18.7770777,-37.55831 18.781233,0 56.343698,37.55831 75.120773,65.73016 5.97509,9.06236 12.96819,17.41004 20.84634,24.88098 4.67453,4.34627 11.23965,6.01249 17.41835,4.41276 6.17869,-1.59558 11.11915,-6.23271 13.10115,-12.29922 3.57342,-11.58037 5.25625,-23.65936 4.97371,-35.77575 V 70.666211 c -0.054,-11.937717 7.49587,-22.58734 18.78123,-26.480707 3.00001,-1.138507 6.18285,-1.711917 9.39061,-1.691141 15.55685,0 28.17185,12.610849 28.17185,28.171848 V 33.103746 c -0.0582,-11.937717 7.49172,-22.58734 18.77708,-26.480707 3.00001,-1.1343529 6.18285,-1.7077628 9.39062,-1.6869863 15.55684,0 28.17185,12.6108493 28.17185,28.1676933 v 37.562465 c 0,-7.470941 2.97092,-14.634402 8.26041,-19.907275 2.94184,-2.987546 6.54435,-5.239631 10.52082,-6.573432 2.99585,-1.138507 6.17869,-1.711917 9.38646,-1.691141 15.561,0 28.17185,12.610849 28.17185,28.171848 v 73.521049 c 0,-7.47094 2.97092,-14.63025 8.26457,-19.90728 2.93769,-2.98754 6.54019,-5.23963 10.51666,-6.57343 3.66068,-1.34626 7.56651,-1.89059 11.45572,-1.59557 15.08732,1.61219 26.42669,14.50559 26.10259,29.67185 z m 0,0"
     id="path4"
     inkscape:connector-curvature="0"
     style="fill:#fdd7ad;stroke-width:1.06371582" />
  <path
     d="m 186.68773,42.494363 c -3.20776,-0.02078 -6.3906,0.552634 -9.39061,1.691141 -11.28536,3.893367 -18.83525,14.54299 -18.78123,26.480707 V 249.07546 c 0.28254,12.11639 -1.40029,24.19538 -4.97371,35.77575 -1.47923,4.35043 -4.48339,8.01942 -8.45155,10.32968 4.87813,2.86705 10.79505,3.36566 16.0887,1.35873 5.29365,-2.00693 9.39062,-6.3075 11.13993,-11.68841 3.57758,-11.58037 5.26041,-23.65936 4.97786,-35.77575 V 70.666211 c -0.0582,-11.937717 7.49587,-22.58734 18.78123,-26.480707 -3.00001,-1.138507 -6.18285,-1.711917 -9.39062,-1.691141 z m 0,0"
     id="path6"
     inkscape:connector-curvature="0"
     style="fill:#cbb292;stroke-width:1.06371582" />
  <g
     id="g16"
     transform="matrix(1.0637158,0,0,1.0637158,-0.03179061,-32.622258)"
     style="fill:#fee7ce">
    <path
       d="m 325.60547,300.13281 c -4.875,0 -8.82813,3.95313 -8.82813,8.82813 v 52.96484 c 0,4.875 3.95313,8.82813 8.82813,8.82813 4.875,0 8.82812,-3.95313 8.82812,-8.82813 v -52.96484 c 0,-4.875 -3.95312,-8.82813 -8.82812,-8.82813 z m 0,0"
       id="path8"
       inkscape:connector-curvature="0" />
    <path
       d="m 325.82422,388.53516 c -4.75781,0.0703 -8.67969,3.7539 -9.04688,8.5 -0.66406,4.48437 -2.875,8.59375 -6.25,11.61718 -2.29687,2.21485 -3.21484,5.4961 -2.40625,8.58594 0.80469,3.08594 3.21485,5.49609 6.30469,6.30469 3.08594,0.80469 6.36719,-0.11328 8.58203,-2.41016 6.72266,-6.21484 10.8086,-14.76172 11.42578,-23.89453 -0.0117,-4.76562 -3.84375,-8.64062 -8.60937,-8.70312 z m 0,0"
       id="path10"
       inkscape:connector-curvature="0" />
    <path
       d="m 193.19141,467.85937 h -8.82813 c -4.875,0 -8.82812,3.95313 -8.82812,8.82813 0,4.875 3.95312,8.82422 8.82812,8.82422 h 8.82813 c 4.875,0 8.82812,-3.94922 8.82812,-8.82422 0,-4.875 -3.95312,-8.82813 -8.82812,-8.82813 z m 0,0"
       id="path12"
       inkscape:connector-curvature="0" />
    <path
       d="M 290.29297,467.85937 H 228.5 c -4.875,0 -8.82812,3.95313 -8.82812,8.82813 0,4.875 3.95312,8.82422 8.82812,8.82422 h 61.79297 c 4.875,0 8.82812,-3.94922 8.82812,-8.82422 0,-4.875 -3.95312,-8.82813 -8.82812,-8.82813 z m 0,0"
       id="path14"
       inkscape:connector-curvature="0" />
  </g>
  <path
     d="m 233.63666,6.623039 c -11.28536,3.893367 -18.83525,14.54299 -18.77708,26.480707 V 230.29422 c 0,5.18562 4.20085,9.39062 9.38646,9.39062 5.18977,0 9.39062,-4.205 9.39062,-9.39062 V 33.103746 c -0.054,-11.937717 7.49587,-22.58734 18.78123,-26.480707 -6.05819,-2.2520853 -12.72303,-2.2520853 -18.78123,0 z m 0,0"
     id="path18"
     inkscape:connector-curvature="0"
     style="fill:#cbb292;stroke-width:1.06371582" />
  <path
     d="m 289.98036,44.185504 c -3.97647,1.333801 -7.57898,3.585886 -10.52082,6.573432 -5.28949,5.272873 -8.26041,12.436334 -8.26041,19.907275 V 230.29422 c 0,5.18562 4.205,9.39062 9.39061,9.39062 5.18562,0 9.39062,-4.205 9.39062,-9.39062 V 70.666211 c -0.0582,-11.937717 7.49172,-22.58734 18.77708,-26.480707 -6.0582,-2.25624 -12.72304,-2.25624 -18.77708,0 z m 0,0"
     id="path20"
     inkscape:connector-curvature="0"
     style="fill:#cbb292;stroke-width:1.06371582" />
  <path
     d="m 355.71052,116.01956 c -3.20777,-0.0208 -6.39476,0.55264 -9.39062,1.68699 -3.97647,1.3338 -7.57897,3.58589 -10.51666,6.57343 -5.29365,5.27703 -8.26457,12.43634 -8.26457,19.90728 v 95.49758 c 0,5.18562 4.205,9.39062 9.39062,9.39062 5.18561,0 9.39061,-4.205 9.39061,-9.39062 v -95.49758 c -0.0582,-11.93772 7.49172,-22.58734 18.77708,-26.48071 -2.99586,-1.13435 -6.18285,-1.70776 -9.38646,-1.68699 z m 0,0"
     id="path22"
     inkscape:connector-curvature="0"
     style="fill:#cbb292;stroke-width:1.06371582" />
  <g
     id="g96"
     transform="matrix(0.76061583,-0.65220162,0.65220162,0.76061583,-357.41421,704.11126)">
    <path
       style="fill:#4482c3;stroke-width:1.31860232"
       sodipodi:nodetypes="cccccc"
       inkscape:connector-curvature="0"
       id="path8-3"
       d="m 519.4871,131.62778 c -18.63101,-7.17155 -19.21787,-25.39345 -6.22979,-22.40821 m 0,0 c 94.05012,24.16586 189.75688,113.84889 213.93068,200.466 1.78109,15.77612 -20.58164,5.93031 -24.33175,-6.22977 C 682.13286,229.21247 600.09977,152.3378 519.4871,131.62778" />
    <path
       style="fill:#4482c3;stroke-width:0.99431956"
       sodipodi:nodetypes="ccsccccccccc"
       id="path4-6"
       d="m 519.4871,131.62778 8.86891,12.73003 c 1.79584,2.48731 2.11894,5.75776 0.84298,8.55829 -1.27595,2.80051 -3.95211,4.69096 -6.99478,4.94989 -3.04645,0.25823 -5.98812,-1.15918 -7.69876,-3.70679 l -20.57117,-29.53807 c -0.63659,-0.91889 -1.08441,-1.95115 -1.32168,-3.04157 -0.73969,-3.35921 0.60056,-6.84112 3.39848,-8.82106 L 525.3943,91.961976 c 3.82315,-2.6079 9.01019,-1.6523 11.65272,2.146906 2.64702,3.79604 1.77638,9.038348 -1.95573,11.776948 l -12.66684,8.96374"
       inkscape:connector-curvature="0" />
    <path
       style="fill:#4482c3;stroke-width:0.99431962"
       sodipodi:nodetypes="ccsccccccccc"
       id="path4-6-67"
       d="m 704.80765,304.02252 -13.93416,-6.8228 c -2.73218,-1.39532 -6.01364,-1.21565 -8.5867,0.47266 -2.57305,1.6883 -4.03305,4.62156 -3.82472,7.66811 0.2096,3.05018 2.05924,5.74115 4.83802,7.04306 l 32.33087,15.82359 c 1.00526,0.48894 2.09376,0.77402 3.20761,0.84214 3.43274,0.2185 6.6694,-1.63731 8.19926,-4.70455 l 16.06994,-32.21222 c 1.99405,-4.17628 0.25823,-9.15679 -3.89968,-11.18872 -4.15546,-2.03686 -9.20356,-0.37657 -11.34067,3.72968 l -6.92616,13.88617"
       inkscape:connector-curvature="0" />
  </g>
</svg>
