<?xml version="1.0" encoding="UTF-8" standalone="no"?>
<svg
   xmlns:dc="http://purl.org/dc/elements/1.1/"
   xmlns:cc="http://creativecommons.org/ns#"
   xmlns:rdf="http://www.w3.org/1999/02/22-rdf-syntax-ns#"
   xmlns:svg="http://www.w3.org/2000/svg"
   xmlns="http://www.w3.org/2000/svg"
   xmlns:sodipodi="http://sodipodi.sourceforge.net/DTD/sodipodi-0.dtd"
   xmlns:inkscape="http://www.inkscape.org/namespaces/inkscape"
   height="511pt"
   viewBox="-39 0 511 511.88452"
   width="511pt"
   version="1.1"
   id="svg10"
   sodipodi:docname="pinch_side.svg"
   inkscape:version="0.92.2 2405546, 2018-03-11">
  <metadata
     id="metadata16">
    <rdf:RDF>
      <cc:Work
         rdf:about="">
        <dc:format>image/svg+xml</dc:format>
        <dc:type
           rdf:resource="http://purl.org/dc/dcmitype/StillImage" />
        <dc:title></dc:title>
      </cc:Work>
    </rdf:RDF>
  </metadata>
  <defs
     id="defs14" />
  <sodipodi:namedview
     pagecolor="#ffffff"
     bordercolor="#666666"
     borderopacity="1"
     objecttolerance="10"
     gridtolerance="10"
     guidetolerance="10"
     inkscape:pageopacity="0"
     inkscape:pageshadow="2"
     inkscape:window-width="1920"
     inkscape:window-height="1020"
     id="namedview12"
     showgrid="false"
     inkscape:zoom="0.34637965"
     inkscape:cx="340.66667"
     inkscape:cy="340.66667"
     inkscape:window-x="0"
     inkscape:window-y="28"
     inkscape:window-maximized="1"
     inkscape:current-layer="svg10" />
  <path
     d="m424.164062 326.503906c-70.617187 35.3125-61.792968 70.621094-116.433593 100.105469-5.167969 3.597656-9.503907 8.265625-12.710938 13.683594-11.125 15.007812-12.09375 32.75-12.09375 50.671875v3.265625c-.03125 9.738281-7.917969 17.625-17.65625 17.652343h-141.242187c-9.738282-.027343-17.625-7.914062-17.65625-17.652343v-44.757813c0-.882812-.085938-1.765625-.175782-2.648437-.253906-3.035157-1.355468-5.941407-3.175781-8.386719-6.1875-8.933594-10.757812-18.882812-13.507812-29.394531-7.945313-28.867188-9.355469-59.144531-14.210938-90.660157-3.019531-18.523437-9.007812-36.441406-17.746093-53.054687l-54.464844-103.988281c-3.1601565-6.527344-3.507813-14.070313-.953125-20.859375 2.550781-6.792969 7.777343-12.238281 14.460937-15.066407 13.527344-5.125 28.710938 1.082032 34.78125 14.210938l49.167969 96.042969c.429687.722656 1.308594 1.042969 2.101563.765625.796874-.277344 1.28125-1.078125 1.164062-1.910156l-40.695312-202.59375c-1.539063-7.09375-.09375-14.503907 3.996093-20.5 4.089844-5.992188 10.46875-10.039063 17.632813-11.191407 14.371094-1.894531 27.726562 7.742188 30.453125 21.980469l16.242187 71.414062 29.484375 136.652344c.234375 1.070313 1.226563 1.804688 2.320313 1.714844s1.949218-.972656 2.007812-2.070312l2.910156-195.175782c.160157-9.460937 5.351563-18.121094 13.625-22.714844 8.273438-4.59375 18.367188-4.425781 26.484376.441407 8.113281 4.867187 13.015624 13.695312 12.859374 23.15625v193.765625l26.480469-47.582032c10.648438-19.191406 32.03125-29.832031 53.761719-26.746093l11.5625 1.675781c9.375 1.355469 18.464844 4.21875 26.925781 8.476562l53.847657 27.539063c5.757812 2.882813 10.058593 8.03125 11.867187 14.210937 1.808594 6.179688.960937 12.832032-2.332031 18.363282-7.554688 12.527344-23.8125 16.589844-36.371094 9.09375l-39.105469-18.625c-3.367187-1.484375-7.003906-2.234375-10.683593-2.207032-2.941407-.015624-5.863282.464844-8.648438 1.410157-10.140625 3.382812-17.402344 12.332031-18.628906 22.953125l-6.882813 62.058594c-.851562 6.050781-1.175781 12.164062-.972656 18.273437-.269531 11.058594 6.363281 21.117187 16.632813 25.230469 10.269531 4.109375 22.011718 1.40625 29.449218-6.78125 2.84375-3.234375 5.46875-6.65625 7.855469-10.242188 17.65625-26.480468 52.964844-35.308594 70.621094-35.308594 17.652343 0 39.988281 24.1875 17.652343 35.308594zm0 0"
     fill="#fdd7ad"
     id="path2" />
  <g
     fill="#fee7ce"
     id="g8">
    <path
       d="m247.625 485.402344h-8.828125c-4.875 0-8.828125-3.953125-8.828125-8.828125s3.953125-8.828125 8.828125-8.828125h8.828125c4.875 0 8.824219 3.953125 8.824219 8.828125s-3.949219 8.828125-8.824219 8.828125zm0 0"
       id="path4" />
    <path
       d="m203.484375 485.402344h-61.792969c-4.875 0-8.828125-3.953125-8.828125-8.828125s3.953125-8.828125 8.828125-8.828125h61.792969c4.875 0 8.828125 3.953125 8.828125 8.828125s-3.953125 8.828125-8.828125 8.828125zm0 0"
       id="path6" />
  </g>
  <g
     transform="matrix(-0.99230324,0,0,0.99979224,471.11356,331.90752)"
     style="fill:#4482c3"
     id="g10">
    <path
       inkscape:connector-curvature="0"
       d="m 366.92969,25.992188 h -17.06641 c -4.71094,0 -8.53125,3.820312 -8.53125,8.53125 0,4.714843 3.82031,8.535156 8.53125,8.535156 h 17.06641 c 4.71484,0 8.53515,-3.820313 8.53515,-8.535156 0,-4.710938 -3.82031,-8.53125 -8.53515,-8.53125 z m 0,0"
       id="path2-3" />
    <path
       inkscape:connector-curvature="0"
       d="m 511.33984,37.785156 c 1.32032,-3.1875 0.59375,-6.855468 -1.84375,-9.292968 L 483.89844,2.890625 c -3.34766,-3.234375 -8.67188,-3.1875 -11.96094,0.105469 -3.29297,3.289062 -3.33984,8.613281 -0.10547,11.960937 l 11.03516,11.035157 h -81.80078 c -4.71485,0 -8.53516,3.820312 -8.53516,8.53125 0,4.714843 3.82031,8.535156 8.53516,8.535156 h 81.80078 l -11.03516,11.03125 c -2.21875,2.144531 -3.10937,5.316406 -2.32812,8.300781 0.78125,2.984375 3.11328,5.3125 6.09375,6.09375 2.98437,0.78125 6.15625,-0.109375 8.30078,-2.328125 l 25.59765,-25.597656 c 0.79297,-0.796875 1.41797,-1.738282 1.84375,-2.773438 z m 0,0"
       id="path4-6" />
    <path
       inkscape:connector-curvature="0"
       d="m 162.13281,25.992188 h -17.0664 c -4.71485,0 -8.53516,3.820312 -8.53516,8.53125 0,4.714843 3.82031,8.535156 8.53516,8.535156 h 17.0664 c 4.71094,0 8.53125,-3.820313 8.53125,-8.535156 0,-4.710938 -3.82031,-8.53125 -8.53125,-8.53125 z m 0,0"
       id="path6-7" />
    <path
       inkscape:connector-curvature="0"
       d="M 110.92969,25.992188 H 29.132812 L 40.164062,14.957031 C 43.398438,11.609375 43.351562,6.285156 40.0625,2.996094 36.769531,-0.296875 31.445312,-0.34375 28.097656,2.890625 L 2.5,28.492188 c -3.332031,3.332031 -3.332031,8.734374 0,12.066406 L 28.097656,66.15625 c 3.347656,3.234375 8.671875,3.1875 11.964844,-0.101562 3.289062,-3.292969 3.335938,-8.617188 0.101562,-11.964844 l -11.03125,-11.03125 h 81.796878 c 4.71484,0 8.53515,-3.820313 8.53515,-8.535156 0,-4.710938 -3.82031,-8.53125 -8.53515,-8.53125 z m 0,0"
       id="path8" />
  </g>
</svg>
