<?xml version="1.0" encoding="UTF-8" standalone="no"?>
<svg
   xmlns:dc="http://purl.org/dc/elements/1.1/"
   xmlns:cc="http://creativecommons.org/ns#"
   xmlns:rdf="http://www.w3.org/1999/02/22-rdf-syntax-ns#"
   xmlns:svg="http://www.w3.org/2000/svg"
   xmlns="http://www.w3.org/2000/svg"
   xmlns:sodipodi="http://sodipodi.sourceforge.net/DTD/sodipodi-0.dtd"
   xmlns:inkscape="http://www.inkscape.org/namespaces/inkscape"
   height="512pt"
   viewBox="0 -44 512.00123 512"
   width="512pt"
   version="1.1"
   id="svg18"
   sodipodi:docname="pointing.svg"
   inkscape:version="0.92.2 2405546, 2018-03-11">
  <metadata
     id="metadata24">
    <rdf:RDF>
      <cc:Work
         rdf:about="">
        <dc:format>image/svg+xml</dc:format>
        <dc:type
           rdf:resource="http://purl.org/dc/dcmitype/StillImage" />
      </cc:Work>
    </rdf:RDF>
  </metadata>
  <defs
     id="defs22" />
  <sodipodi:namedview
     pagecolor="#ffffff"
     bordercolor="#666666"
     borderopacity="1"
     objecttolerance="10"
     gridtolerance="10"
     guidetolerance="10"
     inkscape:pageopacity="0"
     inkscape:pageshadow="2"
     inkscape:window-width="1920"
     inkscape:window-height="1020"
     id="namedview20"
     showgrid="false"
     inkscape:zoom="0.9777961"
     inkscape:cx="341.33333"
     inkscape:cy="341.33333"
     inkscape:window-x="0"
     inkscape:window-y="28"
     inkscape:window-maximized="1"
     inkscape:current-layer="svg18" />
  <ellipse
     style="fill:#3b97d3;fill-opacity:1;stroke-width:0.73457807"
     id="path26"
     cx="455.72446"
     cy="61.291378"
     rx="55.24691"
     ry="57.371788" />
  <path
     d="m 471.14994,56.512083 c 0.0718,9.414226 -3.77431,18.436645 -10.61122,24.906905 -6.84051,6.466666 -16.06063,9.806037 -25.45688,9.212927 H 310.79533 l 30.78766,18.440245 c 7.3689,4.47167 12.46243,11.89449 13.98294,20.38132 1.52411,8.48323 -0.66859,17.21449 -6.02092,23.97231 l -8.78878,11.12886 c -1.87637,2.36882 -3.41127,4.99288 -4.55794,7.78947 l -3.14527,7.64209 c 4.87427,7.23231 9.58677,6.58169 4.95694,14.13752 -10.07563,14.38913 -24.69482,24.97161 -41.51031,30.05437 h -0.16176 c -0.33428,1.82604 -0.90943,3.60176 -1.70743,5.28044 l -13.40421,26.80844 c -6.57451,13.33593 -18.80689,23.00178 -33.30388,26.316 -14.13391,3.33218 -35.25572,7.55582 -63.84708,12.0239 l -0.0827,-0.0827 c -3.0662,3.13088 -6.47387,5.90949 -10.15472,8.28912 -18.63794,12.39414 -40.34207,19.3928 -62.7112,20.22674 -4.20567,0.0935 -8.20644,1.84403 -11.128846,4.87068 -12.023861,12.26837 -44.921539,53.85777 -86.270095,93.50248 -2.347266,2.23584 -5.8016666,2.8649 -8.7887693,1.59241 C 1.9554605,421.73313 0.01078784,418.80713 4.0280744e-6,415.56121 V 230.10916 C -0.02517888,224.86825 2.5269795,219.94725 6.8225126,216.94937 82.125557,163.17073 150.8505,93.313485 179.20102,49.851308 c 3.13449,-4.852695 8.30351,-8.019529 14.05125,-8.60904 l 81.55763,-5.603965 c 32.31536,-2.207078 64.73496,-2.422754 97.07547,-0.65062 l 82.28733,1.624755 c 9.79526,1.534888 17.00601,9.985767 16.97724,19.899645 z m 0,0"
     id="path2"
     inkscape:connector-curvature="0"
     style="fill:#fdd7ad;stroke-width:0.92021477" />
  <path
     d="m 162.46462,133.27813 c -3.22075,0 -6.13955,-1.90155 -7.43721,-4.8527 -1.29405,-2.95116 -0.72611,-6.38759 1.45221,-8.76001 2.76065,-3.01587 5.43144,-5.99577 8.00875,-8.93615 1.87279,-2.3257 4.87067,-3.43643 7.80745,-2.89364 2.93679,0.54638 5.33796,2.65999 6.251,5.50331 0.91661,2.84332 0.1941,5.95983 -1.87279,8.11299 -2.66,3.02305 -5.40626,6.08204 -8.2388,9.17698 -1.53129,1.68227 -3.69524,2.64202 -5.97061,2.64922 z m 0,0"
     id="path4"
     inkscape:connector-curvature="0"
     style="fill:#fee7ce;stroke-width:0.92021477" />
  <path
     d="m 30.730124,249.61339 c -3.529886,0 -6.657179,-2.27536 -7.73915,-5.6363 -1.081971,-3.36094 0.133,-7.03821 3.005077,-9.09073 37.815075,-27.15352 73.401506,-57.28696 106.414209,-90.11275 3.1956,-3.06977 8.26396,-3.01226 11.38766,0.12942 3.12369,3.14166 3.15246,8.21003 0.0647,11.38765 -33.62019,33.44047 -69.860834,64.13825 -108.380448,91.79502 -1.380323,0.9993 -3.044619,1.53489 -4.752048,1.52769 z m 0,0"
     id="path6"
     inkscape:connector-curvature="0"
     style="fill:#fee7ce;stroke-width:0.92021477" />
  <g
     id="g16"
     transform="matrix(0.92021477,0,0,0.92021477,-1.6712903e-5,33.801468)"
     style="fill:#cbb292">
    <path
       d="m 367.31641,174.22266 c -8.64844,12.63671 -20.71094,22.55468 -34.78125,28.60156 7.05859,-5.03906 13.10546,-11.35547 17.83203,-18.62891 3.36328,-5.78906 4.45703,-12.62109 3.0625,-19.17187 -1.62891,-6.08203 -5.76172,-11.1875 -11.3711,-14.05469 l -28.875,-20.30469 -45.17968,-31.652341 c -3.71094,-2.878907 -4.51954,-8.160157 -1.83985,-12.015625 2.6836,-3.859375 7.91406,-4.941406 11.90625,-2.464844 l 50.625,35.36328 c 9.375,6.5625 18.75391,13.10938 28.14063,19.64453 5.53906,3.02344 10.04687,7.63281 12.9414,13.23828 2.27344,7.17188 1.37891,14.97266 -2.46093,21.44532 z m 0,0"
       id="path8"
       inkscape:connector-curvature="0" />
    <path
       d="m 322.20703,207.41406 c -0.53906,2.52344 -1.27344,5.00781 -2.1875,7.42188 -8.57422,22.86328 -23.39453,49.36328 -47.96094,54.79297 3.53125,-1.17188 9.83203,-10.10547 11.96875,-13.30079 3.73828,-5.53906 7.0586,-11.35156 9.92969,-17.38281 6.41406,-11.44922 9.89063,-24.30859 10.12891,-37.42969 -0.88282,-9.20703 -7.66407,-14.3789 -13.75391,-20.48046 l -17.97266,-18 -24.14453,-24.1875 c -3.42187,-3.44141 -3.42187,-9.00391 0,-12.44532 3.46875,-3.4414 9.06641,-3.4414 12.53516,0 l 53.9375,54.02344 c 7.17578,6.98828 10.04687,17.29297 7.51953,26.98828 z m 0,0"
       id="path10"
       inkscape:connector-curvature="0" />
    <path
       d="m 379.85156,129.99609 -3.53125,4.41407 c 4.44922,-14.28907 -1.41406,-29.76563 -14.21094,-37.519535 L 328.65234,76.851562 303.66797,61.847656 c -2.01172,-1.199218 -3.45703,-3.152344 -4.02344,-5.421875 -0.5625,-2.273437 -0.19531,-4.675781 1.02344,-6.671875 C 303.18359,45.589844 308.58984,44.25 312.76172,46.75 l 24.98047,15.007812 25.25,15.09375 8.20703,4.945313 c 8.00781,4.859375 13.54297,12.925781 15.19531,22.148435 1.65625,9.21875 -0.72656,18.70703 -6.54297,26.05078 z m 0,0"
       id="path12"
       inkscape:connector-curvature="0" />
    <path
       d="m 275.59766,203.17578 c 0,4.875 -3.95313,8.82813 -8.82813,8.82813 -9.40625,0.37109 -18.71484,2.09765 -27.62891,5.11718 -1.48046,4.44532 -3.95703,8.49219 -7.23828,11.83203 l -13.59765,13.59375 c -0.51172,8.60157 -2.76172,17.01172 -6.61719,24.71875 -3.02344,5.95313 -6.98828,11.375 -11.74219,16.0625 l -0.0898,0.0899 c -3.30078,3.37109 -6.97266,6.36328 -10.94531,8.91797 -20.25391,13.46875 -43.83985,21.07422 -68.14844,21.98047 -4.57031,0.10156 -8.91797,2.0039 -12.09375,5.29297 -13.066408,13.33203 -48.816408,58.52734 -93.750001,101.60937 -2.550781,2.42969 -6.304688,3.11328 -9.550781,1.73047 C 2.125,421.56641 0.0117188,418.38672 0,414.85938 v -4.14844 c 0.882812,-0.42578 1.6875,-0.99219 2.382812,-1.67578 44.933594,-43.07813 80.683594,-88.27735 93.75,-101.60547 3.175782,-3.28906 7.523438,-5.19141 12.093748,-5.29688 24.31641,-0.85937 47.91406,-8.46875 68.14844,-21.98047 3.54297,-2.29687 6.85156,-4.92578 9.88672,-7.85546 0.36328,-0.53907 0.77734,-1.04297 1.23828,-1.50391 8.61328,-8.45703 13.42578,-20.05469 13.32812,-32.12891 v -0.26562 c 0.42188,-4.13281 -0.60546,-8.28516 -2.91406,-11.74219 -3.33984,-3.55859 -3.16015,-9.15234 0.39844,-12.49219 3.55859,-3.33984 9.15234,-3.16015 12.49219,0.39844 1.65234,1.92969 3.04687,4.06641 4.14843,6.35547 l 4.41407,-4.41406 c 1.74609,-1.73438 2.9414,-3.94532 3.4414,-6.35547 -0.0117,-0.0977 0.0195,-0.19531 0.0898,-0.26563 0.11328,-0.37109 0.14453,-0.76172 0.0859,-1.14453 0.25,-1.5 0.19141,-3.03125 -0.17578,-4.5039 l -7.94531,-31.42579 c -0.57812,-2.25781 -0.23437,-4.65625 0.95703,-6.66015 1.19531,-2.00781 3.13672,-3.45313 5.39844,-4.01953 2.27344,-0.58985 4.68359,-0.25391 6.70703,0.9414 2.01953,1.19141 3.48047,3.14063 4.0625,5.41407 l 7.59375,30.01171 c 8.86328,-2.46484 17.99219,-3.85937 27.1875,-4.14843 2.33984,0 4.58594,0.92968 6.24219,2.58593 1.65625,1.65625 2.58594,3.90235 2.58594,6.24219 z m 0,0"
       id="path14"
       inkscape:connector-curvature="0" />
  </g>
</svg>
